<svg xmlns="http://www.w3.org/2000/svg" xmlns:xlink="http://www.w3.org/1999/xlink" width="50" zoomAndPan="magnify" viewBox="0 0 37.5 37.499999" height="50" preserveAspectRatio="xMidYMid meet" version="1.0"><defs><clipPath id="217c3f1fec"><path d="M 0 5.824219 L 31 5.824219 L 31 35 L 0 35 Z M 0 5.824219 " clip-rule="nonzero"/></clipPath><clipPath id="a340d4e197"><path d="M 25 15 L 37.007812 15 L 37.007812 36.910156 L 25 36.910156 Z M 25 15 " clip-rule="nonzero"/></clipPath></defs><g clip-path="url(#217c3f1fec)"><path fill="#004aad" d="M 30.089844 8.230469 L 28.847656 8.230469 L 28.847656 7.621094 C 28.847656 7.273438 28.5625 6.988281 28.210938 6.988281 L 2.117188 6.988281 C 1.761719 6.988281 1.484375 7.273438 1.484375 7.621094 L 1.484375 23.765625 C 1.484375 24.113281 1.769531 24.398438 2.117188 24.398438 L 16.410156 24.398438 L 16.410156 29.375 L 13.664062 29.375 L 12.730469 33.105469 L 16.410156 33.105469 L 16.410156 34.351562 L 9.566406 34.351562 C 9.21875 34.351562 8.945312 34.070312 8.945312 33.726562 C 8.945312 33.398438 9.222656 33.105469 9.574219 33.105469 L 11.1875 33.105469 C 11.328125 33.105469 11.460938 32.996094 11.492188 32.867188 L 12.367188 29.375 L 2.117188 29.375 C 1.082031 29.375 0.238281 28.53125 0.238281 27.515625 L 0.238281 7.601562 C 0.238281 6.570312 1.070312 5.742188 2.117188 5.742188 L 28.210938 5.742188 C 29.25 5.742188 30.089844 6.585938 30.089844 7.601562 Z M 15.164062 28.132812 C 15.851562 28.132812 16.410156 27.574219 16.410156 26.886719 C 16.410156 26.199219 15.851562 25.644531 15.164062 25.644531 C 14.476562 25.644531 13.921875 26.199219 13.921875 26.886719 C 13.921875 27.574219 14.476562 28.132812 15.164062 28.132812 Z M 15.164062 28.132812 " fill-opacity="1" fill-rule="evenodd"/></g><path fill="#004aad" d="M 35.066406 14.449219 L 33.820312 14.449219 L 33.820312 11.960938 L 18.898438 11.960938 L 18.898438 31.863281 L 23.871094 31.863281 L 23.871094 35.59375 L 19.523438 35.59375 C 18.488281 35.59375 17.652344 34.765625 17.652344 33.722656 L 17.652344 11.347656 C 17.652344 10.308594 18.480469 9.472656 19.523438 9.472656 L 33.195312 9.472656 C 34.230469 9.472656 35.066406 10.304688 35.066406 11.347656 Z M 35.066406 14.449219 " fill-opacity="1" fill-rule="evenodd"/><g clip-path="url(#a340d4e197)"><path fill="#004aad" d="M 26.988281 15.691406 L 35.679688 15.691406 C 36.71875 15.691406 37.554688 16.523438 37.554688 17.566406 L 37.554688 34.964844 C 37.554688 36.003906 36.722656 36.839844 35.679688 36.839844 L 26.988281 36.839844 C 25.953125 36.839844 25.117188 36.007812 25.117188 34.964844 L 25.117188 17.566406 C 25.117188 16.527344 25.945312 15.691406 26.988281 15.691406 Z M 26.359375 31.863281 L 36.308594 31.863281 L 36.308594 18.179688 L 26.359375 18.179688 Z M 31.335938 35.59375 C 32.019531 35.59375 32.578125 35.035156 32.578125 34.351562 C 32.578125 33.664062 32.019531 33.105469 31.335938 33.105469 C 30.648438 33.105469 30.089844 33.664062 30.089844 34.351562 C 30.089844 35.035156 30.648438 35.59375 31.335938 35.59375 Z M 31.335938 35.59375 " fill-opacity="1" fill-rule="evenodd"/></g></svg>