<svg xmlns="http://www.w3.org/2000/svg" xmlns:xlink="http://www.w3.org/1999/xlink" width="50" zoomAndPan="magnify" viewBox="0 0 37.5 37.499999" height="50" preserveAspectRatio="xMidYMid meet" version="1.0"><defs><clipPath id="f5c9f3b300"><path d="M 0 0 L 37.007812 0 L 37.007812 37.007812 L 0 37.007812 Z M 0 0 " clip-rule="nonzero"/></clipPath><clipPath id="b20197697a"><path d="M 7.925781 11.457031 L 29.390625 11.457031 L 29.390625 25.519531 L 7.925781 25.519531 Z M 7.925781 11.457031 " clip-rule="nonzero"/></clipPath></defs><g clip-path="url(#f5c9f3b300)"><path fill="#ffffff" d="M 0 0 L 37.007812 0 L 37.007812 37.007812 L 0 37.007812 Z M 0 0 " fill-opacity="1" fill-rule="nonzero"/><path fill="#cbe2ff" d="M 0 0 L 37.007812 0 L 37.007812 37.007812 L 0 37.007812 Z M 0 0 " fill-opacity="1" fill-rule="nonzero"/></g><g clip-path="url(#b20197697a)"><path fill="#004aac" d="M 27.746094 11.457031 L 9.257812 11.457031 C 9.082031 11.457031 8.914062 11.488281 8.75 11.554688 C 8.589844 11.625 8.449219 11.71875 8.324219 11.84375 C 8.199219 11.964844 8.105469 12.109375 8.039062 12.269531 C 7.96875 12.433594 7.9375 12.601562 7.9375 12.777344 L 7.9375 24.21875 C 7.9375 24.394531 7.96875 24.5625 8.039062 24.726562 C 8.105469 24.886719 8.199219 25.03125 8.324219 25.152344 C 8.449219 25.277344 8.589844 25.375 8.75 25.441406 C 8.914062 25.507812 9.082031 25.539062 9.257812 25.542969 L 27.746094 25.542969 C 27.917969 25.539062 28.085938 25.507812 28.25 25.441406 C 28.410156 25.375 28.554688 25.277344 28.675781 25.152344 C 28.800781 25.03125 28.898438 24.886719 28.964844 24.726562 C 29.03125 24.5625 29.066406 24.394531 29.066406 24.21875 L 29.066406 12.777344 C 29.066406 12.601562 29.03125 12.433594 28.964844 12.269531 C 28.898438 12.109375 28.800781 11.964844 28.675781 11.84375 C 28.554688 11.71875 28.410156 11.625 28.25 11.554688 C 28.085938 11.488281 27.917969 11.457031 27.746094 11.457031 Z M 27.355469 12.335938 L 18.773438 19.09375 C 18.589844 19.238281 18.410156 19.238281 18.230469 19.097656 L 9.648438 12.335938 Z M 27.746094 24.660156 L 9.257812 24.660156 C 9.136719 24.660156 9.03125 24.617188 8.945312 24.53125 C 8.859375 24.445312 8.816406 24.34375 8.816406 24.21875 L 8.816406 12.800781 L 17.683594 19.789062 C 17.921875 19.976562 18.195312 20.070312 18.5 20.070312 C 18.804688 20.070312 19.078125 19.976562 19.316406 19.785156 L 28.183594 12.800781 L 28.183594 24.21875 C 28.183594 24.34375 28.140625 24.445312 28.054688 24.53125 C 27.96875 24.617188 27.867188 24.660156 27.746094 24.660156 Z M 27.746094 24.660156 " fill-opacity="1" fill-rule="nonzero"/></g></svg>