<svg xmlns="http://www.w3.org/2000/svg" xmlns:xlink="http://www.w3.org/1999/xlink" width="50" zoomAndPan="magnify" viewBox="0 0 37.5 37.499999" height="50" preserveAspectRatio="xMidYMid meet" version="1.0"><defs><clipPath id="0dd963cace"><path d="M 0 0 L 37.007812 0 L 37.007812 37.007812 L 0 37.007812 Z M 0 0 " clip-rule="nonzero"/></clipPath><clipPath id="f3821c98f3"><path d="M 8.742188 8.742188 L 27.984375 8.742188 L 27.984375 27.984375 L 8.742188 27.984375 Z M 8.742188 8.742188 " clip-rule="nonzero"/></clipPath></defs><g clip-path="url(#0dd963cace)"><path fill="#ffffff" d="M 0 0 L 37.007812 0 L 37.007812 37.007812 L 0 37.007812 Z M 0 0 " fill-opacity="1" fill-rule="nonzero"/><path fill="#cbe2ff" d="M 0 0 L 37.007812 0 L 37.007812 37.007812 L 0 37.007812 Z M 0 0 " fill-opacity="1" fill-rule="nonzero"/></g><g clip-path="url(#f3821c98f3)"><path fill="#004aac" d="M 18.503906 8.742188 C 18.5 8.742188 18.492188 8.742188 18.488281 8.742188 C 13.105469 8.742188 8.742188 13.105469 8.742188 18.488281 C 8.742188 20.347656 9.261719 22.085938 10.164062 23.566406 L 10.140625 23.523438 L 8.765625 27.652344 C 8.75 27.695312 8.742188 27.746094 8.742188 27.796875 C 8.742188 28.054688 8.949219 28.261719 9.207031 28.261719 C 9.261719 28.261719 9.308594 28.253906 9.355469 28.238281 L 9.351562 28.238281 L 13.480469 26.863281 C 14.917969 27.742188 16.65625 28.261719 18.519531 28.261719 C 23.910156 28.261719 28.28125 23.894531 28.28125 18.503906 C 28.28125 13.113281 23.910156 8.742188 18.519531 8.742188 C 18.511719 8.742188 18.507812 8.742188 18.5 8.742188 Z M 18.503906 27.332031 C 16.753906 27.332031 15.125 26.820312 13.753906 25.9375 L 13.789062 25.960938 C 13.71875 25.914062 13.632812 25.890625 13.542969 25.890625 C 13.542969 25.890625 13.539062 25.890625 13.539062 25.890625 C 13.488281 25.890625 13.4375 25.898438 13.390625 25.914062 L 13.394531 25.914062 L 9.941406 27.0625 L 11.09375 23.613281 C 11.109375 23.570312 11.117188 23.519531 11.117188 23.464844 C 11.117188 23.375 11.089844 23.289062 11.042969 23.21875 C 10.191406 21.882812 9.683594 20.257812 9.683594 18.507812 C 9.683594 13.636719 13.632812 9.683594 18.507812 9.683594 C 23.378906 9.683594 27.332031 13.636719 27.332031 18.507812 C 27.332031 23.382812 23.378906 27.332031 18.507812 27.332031 C 18.503906 27.332031 18.503906 27.332031 18.5 27.332031 Z M 18.503906 27.332031 " fill-opacity="1" fill-rule="nonzero"/></g></svg>