<svg xmlns="http://www.w3.org/2000/svg" xmlns:xlink="http://www.w3.org/1999/xlink" width="50" zoomAndPan="magnify" viewBox="0 0 37.5 37.499999" height="50" preserveAspectRatio="xMidYMid meet" version="1.0"><defs><clipPath id="569b60154b"><path d="M 0 0 L 37.007812 0 L 37.007812 37.007812 L 0 37.007812 Z M 0 0 " clip-rule="nonzero"/></clipPath><clipPath id="cdb5e7f185"><path d="M 11.570312 8.707031 L 25.632812 8.707031 L 25.632812 27.949219 L 11.570312 27.949219 Z M 11.570312 8.707031 " clip-rule="nonzero"/></clipPath></defs><g clip-path="url(#569b60154b)"><path fill="#ffffff" d="M 0 0 L 37.007812 0 L 37.007812 37.007812 L 0 37.007812 Z M 0 0 " fill-opacity="1" fill-rule="nonzero"/><path fill="#cbe2ff" d="M 0 0 L 37.007812 0 L 37.007812 37.007812 L 0 37.007812 Z M 0 0 " fill-opacity="1" fill-rule="nonzero"/></g><g clip-path="url(#cdb5e7f185)"><path fill="#004aac" d="M 21.554688 23.753906 C 20.289062 25.578125 19.007812 26.992188 18.5 27.527344 C 17.996094 26.992188 16.714844 25.578125 15.449219 23.753906 C 13.96875 21.625 12.203125 18.492188 12.203125 15.636719 C 12.203125 12.164062 15.03125 9.339844 18.5 9.339844 C 21.972656 9.339844 24.796875 12.164062 24.796875 15.636719 C 24.796875 18.492188 23.035156 21.625 21.554688 23.753906 Z M 18.5 8.710938 C 14.679688 8.710938 11.574219 11.816406 11.574219 15.636719 C 11.574219 18.0625 12.707031 20.917969 14.9375 24.125 C 16.585938 26.496094 18.261719 28.191406 18.277344 28.207031 C 18.335938 28.265625 18.417969 28.300781 18.5 28.300781 C 18.585938 28.300781 18.667969 28.265625 18.726562 28.207031 C 18.742188 28.191406 20.417969 26.496094 22.066406 24.125 C 24.296875 20.917969 25.429688 18.0625 25.429688 15.636719 C 25.429688 11.816406 22.320312 8.710938 18.5 8.710938 " fill-opacity="1" fill-rule="nonzero"/></g><path fill="#004aac" d="M 18.535156 18.488281 C 17.070312 18.488281 15.878906 17.292969 15.878906 15.828125 C 15.878906 14.363281 17.070312 13.167969 18.535156 13.167969 C 20.003906 13.167969 21.195312 14.363281 21.195312 15.828125 C 21.195312 17.292969 20.003906 18.488281 18.535156 18.488281 Z M 18.535156 12.539062 C 16.722656 12.539062 15.246094 14.015625 15.246094 15.828125 C 15.246094 17.644531 16.722656 19.117188 18.535156 19.117188 C 20.351562 19.117188 21.828125 17.644531 21.828125 15.828125 C 21.828125 14.015625 20.351562 12.539062 18.535156 12.539062 " fill-opacity="1" fill-rule="nonzero"/></svg>