<svg xmlns="http://www.w3.org/2000/svg" xmlns:xlink="http://www.w3.org/1999/xlink" width="50" zoomAndPan="magnify" viewBox="0 0 37.5 37.499999" height="50" preserveAspectRatio="xMidYMid meet" version="1.0"><defs><clipPath id="6b0e701180"><path d="M 0 0 L 37.007812 0 L 37.007812 37.007812 L 0 37.007812 Z M 0 0 " clip-rule="nonzero"/></clipPath></defs><g clip-path="url(#6b0e701180)"><path fill="#004aad" d="M 36.875 18.648438 C 22.273438 20.449219 20.449219 22.273438 18.648438 36.875 C 18.636719 36.960938 18.589844 37.003906 18.503906 37.003906 C 18.414062 37.003906 18.367188 36.960938 18.355469 36.875 C 16.554688 22.273438 14.734375 20.449219 0.128906 18.648438 C 0.0429688 18.636719 0 18.589844 0 18.503906 C 0 18.414062 0.0429688 18.367188 0.128906 18.355469 C 14.734375 16.554688 16.554688 14.734375 18.355469 0.128906 C 18.367188 0.0429688 18.414062 0 18.503906 0 C 18.589844 0 18.636719 0.0429688 18.648438 0.128906 C 20.449219 14.734375 22.273438 16.554688 36.875 18.355469 C 36.960938 18.367188 37.003906 18.414062 37.003906 18.503906 C 37.003906 18.589844 36.960938 18.636719 36.875 18.648438 Z M 36.875 18.648438 " fill-opacity="1" fill-rule="nonzero"/></g></svg>