<svg xmlns="http://www.w3.org/2000/svg" xmlns:xlink="http://www.w3.org/1999/xlink" width="50" zoomAndPan="magnify" viewBox="0 0 37.5 37.499999" height="50" preserveAspectRatio="xMidYMid meet" version="1.0"><path fill="#004aad" d="M 19.761719 22.027344 L 19.761719 21.160156 L 29.964844 21.160156 C 30.210938 21.164062 30.421875 21.25 30.597656 21.425781 C 30.773438 21.601562 30.863281 21.8125 30.863281 22.0625 L 30.863281 27.53125 C 31.058594 27.566406 31.246094 27.625 31.425781 27.707031 C 31.605469 27.789062 31.769531 27.894531 31.925781 28.015625 C 32.078125 28.140625 32.214844 28.28125 32.335938 28.4375 C 32.453125 28.59375 32.554688 28.765625 32.628906 28.945312 C 32.707031 29.128906 32.761719 29.316406 32.792969 29.511719 C 32.824219 29.707031 32.828125 29.902344 32.8125 30.101562 C 32.792969 30.296875 32.75 30.488281 32.6875 30.675781 C 32.621094 30.859375 32.535156 31.035156 32.425781 31.203125 C 32.316406 31.367188 32.1875 31.515625 32.042969 31.648438 C 31.894531 31.78125 31.734375 31.894531 31.5625 31.988281 C 31.386719 32.082031 31.207031 32.152344 31.015625 32.203125 C 30.824219 32.25 30.628906 32.273438 30.429688 32.273438 C 30.234375 32.273438 30.039062 32.25 29.847656 32.203125 C 29.65625 32.152344 29.472656 32.082031 29.296875 31.988281 C 29.125 31.894531 28.964844 31.78125 28.820312 31.648438 C 28.671875 31.515625 28.546875 31.367188 28.4375 31.203125 C 28.328125 31.035156 28.238281 30.859375 28.175781 30.675781 C 28.109375 30.488281 28.066406 30.296875 28.050781 30.101562 C 28.03125 29.902344 28.039062 29.707031 28.070312 29.511719 C 28.097656 29.316406 28.152344 29.128906 28.230469 28.945312 C 28.308594 28.765625 28.40625 28.59375 28.527344 28.4375 C 28.644531 28.28125 28.78125 28.140625 28.9375 28.015625 C 29.089844 27.894531 29.257812 27.789062 29.4375 27.707031 C 29.617188 27.625 29.804688 27.566406 29.996094 27.53125 L 29.996094 22.0625 C 29.996094 22.039062 29.984375 22.027344 29.964844 22.027344 Z M 19.761719 25.117188 L 24.660156 25.117188 C 24.683594 25.117188 24.695312 25.128906 24.695312 25.152344 L 24.695312 30.625 C 24.5 30.660156 24.3125 30.71875 24.132812 30.800781 C 23.953125 30.882812 23.789062 30.984375 23.632812 31.109375 C 23.480469 31.230469 23.34375 31.371094 23.222656 31.53125 C 23.105469 31.6875 23.003906 31.855469 22.929688 32.039062 C 22.851562 32.21875 22.796875 32.410156 22.765625 32.605469 C 22.734375 32.800781 22.730469 32.996094 22.746094 33.191406 C 22.765625 33.386719 22.808594 33.578125 22.871094 33.765625 C 22.9375 33.953125 23.023438 34.128906 23.132812 34.292969 C 23.242188 34.457031 23.371094 34.605469 23.515625 34.738281 C 23.664062 34.875 23.824219 34.988281 23.996094 35.078125 C 24.171875 35.171875 24.351562 35.246094 24.542969 35.292969 C 24.734375 35.339844 24.929688 35.363281 25.128906 35.363281 C 25.324219 35.363281 25.519531 35.339844 25.710938 35.292969 C 25.902344 35.246094 26.085938 35.171875 26.261719 35.078125 C 26.433594 34.988281 26.59375 34.875 26.738281 34.738281 C 26.886719 34.605469 27.011719 34.457031 27.121094 34.292969 C 27.230469 34.128906 27.320312 33.953125 27.382812 33.765625 C 27.449219 33.578125 27.492188 33.386719 27.507812 33.191406 C 27.527344 32.996094 27.519531 32.800781 27.488281 32.605469 C 27.460938 32.410156 27.40625 32.21875 27.328125 32.039062 C 27.25 31.855469 27.152344 31.6875 27.03125 31.53125 C 26.914062 31.371094 26.777344 31.230469 26.621094 31.109375 C 26.46875 30.984375 26.300781 30.882812 26.121094 30.800781 C 25.941406 30.71875 25.753906 30.660156 25.5625 30.625 L 25.5625 25.152344 C 25.558594 24.90625 25.472656 24.691406 25.296875 24.519531 C 25.121094 24.34375 24.910156 24.253906 24.660156 24.253906 L 19.761719 24.253906 Z M 19.761719 12.753906 L 19.761719 11.886719 L 24.660156 11.886719 C 24.683594 11.886719 24.695312 11.875 24.695312 11.851562 L 24.695312 6.382812 C 24.5 6.347656 24.3125 6.289062 24.132812 6.207031 C 23.953125 6.125 23.789062 6.023438 23.632812 5.898438 C 23.480469 5.773438 23.34375 5.632812 23.222656 5.476562 C 23.105469 5.320312 23.003906 5.148438 22.929688 4.96875 C 22.851562 4.785156 22.796875 4.597656 22.765625 4.402344 C 22.734375 4.207031 22.730469 4.011719 22.746094 3.816406 C 22.765625 3.617188 22.808594 3.425781 22.871094 3.242188 C 22.9375 3.054688 23.023438 2.878906 23.132812 2.714844 C 23.242188 2.546875 23.371094 2.398438 23.515625 2.265625 C 23.664062 2.132812 23.824219 2.019531 23.996094 1.925781 C 24.171875 1.832031 24.351562 1.761719 24.542969 1.714844 C 24.734375 1.664062 24.929688 1.640625 25.128906 1.640625 C 25.324219 1.640625 25.519531 1.664062 25.710938 1.714844 C 25.902344 1.761719 26.085938 1.832031 26.261719 1.925781 C 26.433594 2.019531 26.59375 2.132812 26.738281 2.265625 C 26.886719 2.398438 27.011719 2.546875 27.121094 2.714844 C 27.230469 2.878906 27.320312 3.054688 27.382812 3.242188 C 27.449219 3.425781 27.492188 3.617188 27.507812 3.816406 C 27.527344 4.011719 27.519531 4.207031 27.488281 4.402344 C 27.460938 4.597656 27.40625 4.785156 27.328125 4.96875 C 27.25 5.148438 27.152344 5.320312 27.03125 5.476562 C 26.914062 5.632812 26.777344 5.773438 26.621094 5.898438 C 26.46875 6.023438 26.300781 6.125 26.121094 6.207031 C 25.941406 6.289062 25.753906 6.347656 25.5625 6.382812 L 25.5625 11.851562 C 25.5625 12.101562 25.472656 12.3125 25.296875 12.488281 C 25.121094 12.664062 24.910156 12.753906 24.660156 12.753906 Z M 19.761719 15.84375 L 29.964844 15.84375 C 30.210938 15.84375 30.421875 15.757812 30.597656 15.582031 C 30.773438 15.40625 30.863281 15.191406 30.863281 14.945312 L 30.863281 9.472656 C 31.058594 9.4375 31.246094 9.378906 31.425781 9.296875 C 31.605469 9.214844 31.769531 9.113281 31.925781 8.988281 C 32.078125 8.867188 32.214844 8.726562 32.335938 8.566406 C 32.453125 8.410156 32.554688 8.242188 32.628906 8.058594 C 32.707031 7.878906 32.761719 7.6875 32.792969 7.492188 C 32.824219 7.296875 32.828125 7.101562 32.8125 6.90625 C 32.792969 6.710938 32.75 6.519531 32.6875 6.332031 C 32.621094 6.144531 32.535156 5.96875 32.425781 5.804688 C 32.316406 5.640625 32.1875 5.492188 32.042969 5.359375 C 31.894531 5.222656 31.734375 5.109375 31.5625 5.019531 C 31.386719 4.925781 31.207031 4.851562 31.015625 4.804688 C 30.824219 4.757812 30.628906 4.734375 30.429688 4.734375 C 30.234375 4.734375 30.039062 4.757812 29.847656 4.804688 C 29.65625 4.851562 29.472656 4.925781 29.296875 5.019531 C 29.125 5.109375 28.964844 5.222656 28.820312 5.359375 C 28.671875 5.492188 28.546875 5.640625 28.4375 5.804688 C 28.328125 5.96875 28.238281 6.144531 28.175781 6.332031 C 28.109375 6.519531 28.066406 6.710938 28.050781 6.90625 C 28.03125 7.101562 28.039062 7.296875 28.070312 7.492188 C 28.097656 7.6875 28.152344 7.878906 28.230469 8.058594 C 28.308594 8.242188 28.40625 8.410156 28.527344 8.566406 C 28.644531 8.726562 28.78125 8.867188 28.9375 8.988281 C 29.089844 9.113281 29.257812 9.214844 29.4375 9.296875 C 29.617188 9.378906 29.804688 9.4375 29.996094 9.472656 L 29.996094 14.945312 C 29.996094 14.96875 29.984375 14.980469 29.964844 14.980469 L 19.761719 14.980469 Z M 18.894531 18.070312 L 18.894531 25.339844 C 18.894531 25.457031 18.851562 25.558594 18.769531 25.644531 C 18.683594 25.730469 18.582031 25.769531 18.460938 25.769531 C 17.984375 25.769531 17.511719 25.726562 17.042969 25.632812 C 16.578125 25.539062 16.121094 25.402344 15.679688 25.21875 C 15.238281 25.035156 14.820312 24.8125 14.425781 24.546875 C 14.027344 24.28125 13.660156 23.980469 13.324219 23.640625 C 12.984375 23.304688 12.683594 22.9375 12.417969 22.542969 C 12.152344 22.144531 11.929688 21.726562 11.746094 21.285156 C 11.566406 20.84375 11.425781 20.390625 11.332031 19.921875 C 11.242188 19.453125 11.195312 18.980469 11.195312 18.503906 C 11.195312 18.027344 11.242188 17.554688 11.332031 17.085938 C 11.425781 16.617188 11.566406 16.164062 11.746094 15.722656 C 11.929688 15.28125 12.152344 14.863281 12.417969 14.464844 C 12.683594 14.070312 12.984375 13.703125 13.324219 13.363281 C 13.660156 13.027344 14.027344 12.726562 14.425781 12.460938 C 14.820312 12.195312 15.238281 11.972656 15.679688 11.789062 C 16.121094 11.605469 16.578125 11.46875 17.042969 11.375 C 17.511719 11.28125 17.984375 11.234375 18.460938 11.234375 C 18.582031 11.234375 18.683594 11.277344 18.769531 11.363281 C 18.851562 11.445312 18.894531 11.546875 18.894531 11.667969 Z M 34.535156 16.113281 C 34.253906 16.113281 33.984375 16.160156 33.71875 16.253906 C 33.457031 16.351562 33.21875 16.488281 33.003906 16.667969 C 32.789062 16.847656 32.613281 17.054688 32.472656 17.296875 C 32.328125 17.539062 32.234375 17.796875 32.183594 18.070312 L 19.761719 18.070312 L 19.761719 18.9375 L 32.183594 18.9375 C 32.238281 19.234375 32.347656 19.515625 32.507812 19.773438 C 32.667969 20.03125 32.871094 20.25 33.117188 20.429688 C 33.363281 20.609375 33.632812 20.738281 33.929688 20.816406 C 34.222656 20.894531 34.519531 20.914062 34.824219 20.875 C 35.125 20.839844 35.410156 20.746094 35.679688 20.601562 C 35.945312 20.457031 36.175781 20.265625 36.371094 20.03125 C 36.566406 19.796875 36.710938 19.535156 36.804688 19.246094 C 36.898438 18.957031 36.9375 18.660156 36.917969 18.359375 C 36.902344 18.054688 36.828125 17.765625 36.699219 17.488281 C 36.570312 17.210938 36.394531 16.96875 36.171875 16.761719 C 35.949219 16.554688 35.699219 16.394531 35.414062 16.28125 C 35.132812 16.167969 34.839844 16.113281 34.535156 16.113281 Z M 1.011719 22.335938 L 3.890625 22.691406 C 4.203125 23.792969 4.640625 24.84375 5.199219 25.847656 L 3.414062 28.132812 C 3.234375 28.363281 3.152344 28.621094 3.171875 28.914062 C 3.1875 29.203125 3.300781 29.453125 3.507812 29.65625 L 7.308594 33.457031 C 7.515625 33.664062 7.761719 33.777344 8.054688 33.792969 C 8.34375 33.8125 8.605469 33.730469 8.835938 33.550781 L 11.117188 31.769531 C 12.121094 32.324219 13.175781 32.761719 14.277344 33.074219 L 14.632812 35.953125 C 14.667969 36.242188 14.792969 36.480469 15.011719 36.675781 C 15.230469 36.867188 15.484375 36.964844 15.773438 36.964844 L 18.460938 36.964844 C 18.582031 36.964844 18.683594 36.921875 18.769531 36.839844 C 18.851562 36.753906 18.894531 36.652344 18.894531 36.53125 L 18.894531 27.214844 C 18.894531 27.09375 18.851562 26.992188 18.769531 26.90625 C 18.683594 26.824219 18.582031 26.78125 18.460938 26.78125 C 17.917969 26.78125 17.378906 26.726562 16.847656 26.621094 C 16.3125 26.515625 15.796875 26.359375 15.292969 26.152344 C 14.792969 25.941406 14.316406 25.6875 13.863281 25.386719 C 13.410156 25.082031 12.992188 24.742188 12.609375 24.355469 C 12.226562 23.972656 11.882812 23.554688 11.578125 23.101562 C 11.277344 22.648438 11.023438 22.171875 10.816406 21.671875 C 10.605469 21.167969 10.449219 20.652344 10.34375 20.117188 C 10.238281 19.585938 10.183594 19.046875 10.183594 18.503906 C 10.183594 17.960938 10.238281 17.421875 10.34375 16.886719 C 10.449219 16.355469 10.605469 15.835938 10.816406 15.335938 C 11.023438 14.832031 11.277344 14.355469 11.578125 13.90625 C 11.882812 13.453125 12.226562 13.035156 12.609375 12.652344 C 12.992188 12.265625 13.410156 11.921875 13.863281 11.621094 C 14.316406 11.320312 14.792969 11.0625 15.292969 10.855469 C 15.796875 10.648438 16.3125 10.492188 16.847656 10.386719 C 17.378906 10.277344 17.917969 10.226562 18.460938 10.226562 C 18.582031 10.226562 18.683594 10.183594 18.769531 10.097656 C 18.851562 10.015625 18.894531 9.914062 18.894531 9.792969 L 18.894531 0.472656 C 18.894531 0.355469 18.851562 0.253906 18.769531 0.167969 C 18.683594 0.0820312 18.582031 0.0429688 18.460938 0.0429688 L 15.773438 0.0429688 C 15.484375 0.0429688 15.226562 0.136719 15.011719 0.332031 C 14.792969 0.523438 14.664062 0.765625 14.628906 1.054688 L 14.277344 3.929688 C 13.175781 4.246094 12.121094 4.683594 11.117188 5.238281 L 8.835938 3.453125 C 8.605469 3.277344 8.34375 3.195312 8.054688 3.214844 C 7.761719 3.230469 7.515625 3.34375 7.308594 3.546875 L 3.507812 7.347656 C 3.300781 7.554688 3.1875 7.804688 3.171875 8.09375 C 3.152344 8.386719 3.234375 8.644531 3.414062 8.875 L 5.199219 11.160156 C 4.640625 12.164062 4.203125 13.214844 3.890625 14.320312 L 1.011719 14.671875 C 0.722656 14.707031 0.484375 14.835938 0.289062 15.050781 C 0.0976562 15.269531 0 15.523438 0 15.816406 L 0 21.191406 C 0 21.480469 0.0976562 21.738281 0.289062 21.957031 C 0.484375 22.171875 0.722656 22.300781 1.011719 22.335938 Z M 1.011719 22.335938 " fill-opacity="1" fill-rule="evenodd"/></svg>