<svg xmlns="http://www.w3.org/2000/svg" xmlns:xlink="http://www.w3.org/1999/xlink" width="50" zoomAndPan="magnify" viewBox="0 0 37.5 37.499999" height="50" preserveAspectRatio="xMidYMid meet" version="1.0"><defs><clipPath id="8901a805a3"><path d="M 0.144531 11 L 28 11 L 28 33.304688 L 0.144531 33.304688 Z M 0.144531 11 " clip-rule="nonzero"/></clipPath><clipPath id="bcd3205ff8"><path d="M 11 3.699219 L 37 3.699219 L 37 26 L 11 26 Z M 11 3.699219 " clip-rule="nonzero"/></clipPath></defs><g clip-path="url(#8901a805a3)"><path fill="#004aad" d="M 26.160156 27.277344 C 25.859375 26.878906 25.296875 26.792969 24.890625 27.089844 C 23.0625 28.433594 20.894531 29.140625 18.625 29.140625 C 15.953125 29.140625 13.394531 28.136719 11.425781 26.320312 C 9.589844 24.625 8.421875 22.363281 8.09375 19.914062 L 10.808594 19.914062 C 11.152344 19.914062 11.464844 19.71875 11.621094 19.414062 C 11.777344 19.109375 11.75 18.742188 11.546875 18.464844 L 6.820312 11.921875 C 6.652344 11.6875 6.378906 11.546875 6.089844 11.542969 C 5.800781 11.539062 5.527344 11.675781 5.351562 11.90625 L 0.410156 18.453125 C 0.203125 18.730469 0.167969 19.101562 0.324219 19.410156 C 0.476562 19.71875 0.792969 19.914062 1.140625 19.914062 L 3.910156 19.914062 C 4.625 27.457031 11.011719 33.304688 18.636719 33.304688 C 21.800781 33.304688 24.828125 32.3125 27.382812 30.429688 C 27.582031 30.285156 27.710938 30.066406 27.746094 29.828125 C 27.78125 29.585938 27.71875 29.339844 27.570312 29.144531 Z M 26.160156 27.277344 " fill-opacity="1" fill-rule="nonzero"/></g><g clip-path="url(#bcd3205ff8)"><path fill="#004aad" d="M 36.675781 17.589844 C 36.519531 17.285156 36.207031 17.09375 35.863281 17.09375 L 33.351562 17.09375 C 32.632812 9.546875 26.253906 3.699219 18.625 3.699219 C 16.207031 3.699219 13.792969 4.308594 11.644531 5.464844 C 11.410156 5.589844 11.246094 5.808594 11.1875 6.0625 C 11.125 6.320312 11.179688 6.589844 11.335938 6.804688 L 12.714844 8.714844 C 12.980469 9.078125 13.464844 9.195312 13.867188 8.996094 C 15.335938 8.253906 16.984375 7.867188 18.640625 7.867188 C 21.3125 7.867188 23.867188 8.867188 25.835938 10.6875 C 27.671875 12.382812 28.839844 14.640625 29.167969 17.09375 L 26.195312 17.089844 C 25.851562 17.089844 25.535156 17.285156 25.378906 17.597656 C 25.222656 17.90625 25.257812 18.277344 25.46875 18.554688 L 30.410156 25.097656 C 30.582031 25.328125 30.851562 25.460938 31.136719 25.460938 C 31.140625 25.460938 31.144531 25.460938 31.148438 25.460938 C 31.4375 25.457031 31.707031 25.316406 31.878906 25.082031 L 36.605469 18.542969 C 36.804688 18.265625 36.832031 17.898438 36.675781 17.589844 Z M 36.675781 17.589844 " fill-opacity="1" fill-rule="nonzero"/></g></svg>