<svg xmlns="http://www.w3.org/2000/svg" xmlns:xlink="http://www.w3.org/1999/xlink" width="50" zoomAndPan="magnify" viewBox="0 0 37.5 37.499999" height="50" preserveAspectRatio="xMidYMid meet" version="1.0"><path fill="#004aad" d="M 18.9375 0.632812 L 19.429688 1.691406 L 20.011719 2.933594 L 22.464844 3.308594 C 23.136719 3.410156 23.179688 3.714844 22.695312 4.210938 L 20.957031 6 L 21.355469 8.441406 C 21.488281 9.238281 21.25 9.429688 20.703125 9.128906 L 18.484375 7.898438 L 18.484375 7.890625 L 18.480469 7.898438 L 16.257812 9.132812 C 15.710938 9.433594 15.476562 9.238281 15.609375 8.441406 L 16.003906 6.003906 L 14.265625 4.210938 C 13.785156 3.71875 13.828125 3.410156 14.5 3.308594 L 16.953125 2.933594 L 18.027344 0.632812 C 18.296875 0.0585938 18.664062 0.0546875 18.9375 0.632812 Z M 18.9375 0.632812 " fill-opacity="1" fill-rule="nonzero"/><path fill="#004aad" d="M 10.246094 5.089844 L 10.671875 6.003906 L 11.175781 7.074219 L 13.296875 7.398438 C 13.878906 7.488281 13.914062 7.75 13.496094 8.183594 L 11.996094 9.730469 L 12.339844 11.835938 C 12.449219 12.527344 12.246094 12.695312 11.773438 12.433594 L 9.855469 11.371094 L 9.851562 11.363281 L 9.851562 11.371094 L 7.929688 12.433594 C 7.457031 12.695312 7.253906 12.53125 7.367188 11.839844 L 7.710938 9.730469 L 6.207031 8.183594 C 5.789062 7.753906 5.828125 7.488281 6.410156 7.402344 L 8.53125 7.074219 L 9.460938 5.089844 C 9.691406 4.589844 10.011719 4.585938 10.246094 5.089844 Z M 10.246094 5.089844 " fill-opacity="1" fill-rule="nonzero"/><path fill="#004aad" d="M 27.5 5.078125 L 27.929688 5.992188 L 28.433594 7.0625 L 30.554688 7.386719 C 31.136719 7.476562 31.171875 7.742188 30.757812 8.167969 L 29.25 9.714844 L 29.59375 11.828125 C 29.710938 12.515625 29.503906 12.683594 29.03125 12.421875 L 27.113281 11.359375 L 27.109375 11.351562 L 27.109375 11.359375 L 25.1875 12.421875 C 24.71875 12.683594 24.511719 12.515625 24.625 11.824219 L 24.96875 9.71875 L 23.464844 8.171875 C 23.046875 7.742188 23.085938 7.476562 23.667969 7.390625 L 25.785156 7.0625 L 26.71875 5.074219 C 26.949219 4.578125 27.269531 4.574219 27.5 5.078125 Z M 27.5 5.078125 " fill-opacity="1" fill-rule="nonzero"/><path fill="#004aad" d="M 3.792969 11.875 L 4.160156 12.652344 L 4.585938 13.5625 L 6.398438 13.835938 C 6.898438 13.910156 6.929688 14.136719 6.574219 14.5 L 5.289062 15.808594 L 5.582031 17.597656 C 5.679688 18.183594 5.503906 18.324219 5.101562 18.101562 L 3.460938 17.203125 L 3.460938 17.195312 L 3.457031 17.203125 L 1.816406 18.105469 C 1.414062 18.324219 1.238281 18.183594 1.332031 17.597656 L 1.628906 15.808594 L 0.34375 14.5 C -0.0117188 14.136719 0.0195312 13.910156 0.515625 13.835938 L 2.328125 13.5625 L 3.121094 11.875 C 3.320312 11.457031 3.59375 11.453125 3.792969 11.875 Z M 3.792969 11.875 " fill-opacity="1" fill-rule="nonzero"/><path fill="#004aad" d="M 14.769531 26.964844 C 10.394531 27.871094 7.648438 30.460938 6.792969 34.1875 C 6.558594 35.199219 6.921875 35.492188 7.375 35.628906 C 10.476562 36.585938 16.226562 36.925781 18.480469 36.925781 C 20.734375 36.925781 26.484375 36.585938 29.589844 35.628906 C 30.039062 35.492188 30.402344 35.199219 30.171875 34.1875 C 29.382812 30.753906 26.988281 28.292969 23.203125 27.214844 C 22.585938 27.589844 21.921875 27.898438 21.222656 28.121094 C 20.992188 28.851562 20.414062 29.449219 19.617188 29.449219 L 17.457031 29.449219 C 16.472656 29.449219 15.652344 28.625 15.652344 27.640625 L 15.652344 27.453125 Z M 14.769531 26.964844 " fill-opacity="1" fill-rule="nonzero"/><path fill="#004aad" d="M 18.796875 11.792969 C 17.175781 11.738281 15.539062 12.179688 14.128906 13.121094 C 12.542969 14.183594 11.433594 15.746094 10.921875 17.496094 C 10.78125 17.484375 10.613281 17.488281 10.414062 17.546875 C 9.664062 17.757812 9.101562 18.371094 8.847656 18.914062 C 8.519531 19.617188 8.382812 20.546875 8.527344 21.507812 C 8.671875 22.46875 9.078125 23.257812 9.585938 23.746094 C 10.089844 24.238281 10.664062 24.398438 11.234375 24.277344 C 12.082031 24.097656 12.503906 23.960938 12.382812 23.171875 L 11.808594 19.339844 C 11.925781 17.265625 12.996094 15.316406 14.792969 14.117188 C 17.195312 12.511719 20.347656 12.613281 22.636719 14.375 C 24.230469 15.597656 25.15625 17.425781 25.265625 19.351562 L 24.863281 22.027344 C 23.964844 24.484375 21.742188 26.179688 19.167969 26.425781 L 17.457031 26.425781 C 17.015625 26.425781 16.660156 26.777344 16.660156 27.222656 L 16.660156 27.640625 C 16.660156 28.082031 17.015625 28.4375 17.457031 28.4375 L 19.617188 28.4375 C 20.058594 28.4375 20.414062 28.082031 20.414062 27.640625 L 20.414062 27.421875 C 22.351562 26.949219 24.046875 25.753906 25.148438 24.09375 L 25.839844 24.277344 C 26.40625 24.421875 26.984375 24.238281 27.488281 23.746094 C 28 23.257812 28.402344 22.464844 28.546875 21.507812 C 28.691406 20.546875 28.550781 19.617188 28.226562 18.914062 C 27.902344 18.207031 27.414062 17.757812 26.859375 17.597656 C 26.621094 17.53125 26.367188 17.503906 26.148438 17.5 C 25.6875 15.917969 24.734375 14.476562 23.367188 13.425781 C 22.019531 12.394531 20.414062 11.84375 18.796875 11.792969 Z M 18.796875 11.792969 " fill-opacity="1" fill-rule="evenodd"/><path fill="#004aad" d="M 18.480469 14.238281 C 15.445312 14.238281 13 16.601562 13 19.71875 C 13 22.835938 15.445312 25.199219 18.480469 25.199219 C 21.515625 25.199219 23.960938 22.835938 23.960938 19.71875 C 23.960938 16.601562 21.515625 14.238281 18.480469 14.238281 Z M 15.867188 16.953125 C 16.40625 17.464844 17.371094 17.808594 18.480469 17.808594 C 19.589844 17.808594 20.558594 17.464844 21.097656 16.953125 C 21.832031 17.644531 22.292969 18.625 22.292969 19.71875 C 22.292969 21.828125 20.59375 23.527344 18.480469 23.527344 C 16.371094 23.527344 14.671875 21.828125 14.671875 19.71875 C 14.671875 18.625 15.132812 17.644531 15.867188 16.953125 Z M 15.867188 16.953125 " fill-opacity="1" fill-rule="evenodd"/><path fill="#004aad" d="M 33.839844 11.875 L 34.207031 12.652344 L 34.632812 13.5625 L 36.445312 13.835938 C 36.945312 13.910156 36.976562 14.136719 36.621094 14.5 L 35.335938 15.808594 L 35.628906 17.597656 C 35.722656 18.183594 35.550781 18.324219 35.148438 18.101562 L 33.507812 17.203125 L 33.507812 17.195312 L 33.503906 17.203125 L 31.863281 18.105469 C 31.460938 18.324219 31.285156 18.183594 31.382812 17.597656 L 31.675781 15.808594 L 30.390625 14.5 C 30.035156 14.136719 30.066406 13.910156 30.5625 13.835938 L 32.375 13.5625 L 33.167969 11.875 C 33.371094 11.457031 33.640625 11.453125 33.839844 11.875 Z M 33.839844 11.875 " fill-opacity="1" fill-rule="nonzero"/></svg>