<svg width="100" height="20" viewBox="0 0 100 20" fill="none" xmlns="http://www.w3.org/2000/svg">
<path d="M9.58373 1.17542C9.70322 0.80636 10.2254 0.80636 10.3448 1.17542L12.1118 6.63304C12.1652 6.79805 12.3189 6.90983 12.4923 6.90983H18.2134C18.6005 6.90983 18.7618 7.40495 18.449 7.63304L13.8182 11.0096C13.6785 11.1115 13.62 11.2915 13.6733 11.456L15.4415 16.9177C15.5609 17.2864 15.1385 17.5924 14.8253 17.3641L10.1999 13.9915C10.0595 13.8891 9.86905 13.8891 9.72862 13.9915L5.10326 17.3641C4.79005 17.5924 4.36764 17.2864 4.48704 16.9177L6.25529 11.456C6.30854 11.2915 6.2501 11.1115 6.1104 11.0096L1.47954 7.63304C1.16672 7.40495 1.32806 6.90983 1.7152 6.90983H7.43623C7.60967 6.90983 7.76335 6.79805 7.81678 6.63304L9.58373 1.17542Z" fill="#FFB31F"/>
<path d="M29.5131 1.17542C29.6325 0.80636 30.1547 0.80636 30.2742 1.17542L32.0411 6.63304C32.0945 6.79805 32.2482 6.90983 32.4217 6.90983H38.1427C38.5298 6.90983 38.6912 7.40495 38.3784 7.63304L33.7475 11.0096C33.6078 11.1115 33.5493 11.2915 33.6026 11.456L35.3709 16.9177C35.4902 17.2864 35.0678 17.5924 34.7546 17.3641L30.1293 13.9915C29.9888 13.8891 29.7984 13.8891 29.6579 13.9915L25.0326 17.3641C24.7194 17.5924 24.297 17.2864 24.4164 16.9177L26.1846 11.456C26.2379 11.2915 26.1794 11.1115 26.0397 11.0096L21.4089 7.63304C21.096 7.40495 21.2574 6.90983 21.6445 6.90983H27.3655C27.539 6.90983 27.6927 6.79805 27.7461 6.63304L29.5131 1.17542Z" fill="#FFB31F"/>
<path d="M49.4404 1.17542C49.5599 0.80636 50.082 0.80636 50.2015 1.17542L51.9685 6.63304C52.0219 6.79805 52.1756 6.90983 52.349 6.90983H58.0701C58.4572 6.90983 58.6185 7.40495 58.3057 7.63304L53.6749 11.0096C53.5352 11.1115 53.4767 11.2915 53.53 11.456L55.2982 16.9177C55.4176 17.2864 54.9952 17.5924 54.682 17.3641L50.0566 13.9915C49.9162 13.8891 49.7257 13.8891 49.5853 13.9915L44.9599 17.3641C44.6467 17.5924 44.2243 17.2864 44.3437 16.9177L46.112 11.456C46.1652 11.2915 46.1068 11.1115 45.9671 11.0096L41.3362 7.63304C41.0234 7.40495 41.1848 6.90983 41.5719 6.90983H47.2929C47.4664 6.90983 47.62 6.79805 47.6735 6.63304L49.4404 1.17542Z" fill="#FFB31F"/>
<path d="M69.3699 1.17542C69.4894 0.80636 70.0115 0.80636 70.131 1.17542L71.8979 6.63304C71.9513 6.79805 72.105 6.90983 72.2785 6.90983H77.9995C78.3866 6.90983 78.548 7.40495 78.2352 7.63304L73.6043 11.0096C73.4646 11.1115 73.4062 11.2915 73.4594 11.456L75.2277 16.9177C75.3471 17.2864 74.9247 17.5924 74.6114 17.3641L69.9861 13.9915C69.8457 13.8891 69.6552 13.8891 69.5148 13.9915L64.8894 17.3641C64.5762 17.5924 64.1538 17.2864 64.2732 16.9177L66.0414 11.456C66.0947 11.2915 66.0362 11.1115 65.8965 11.0096L61.2657 7.63304C60.9529 7.40495 61.1142 6.90983 61.5013 6.90983H67.2224C67.3958 6.90983 67.5495 6.79805 67.6029 6.63304L69.3699 1.17542Z" fill="#FFB31F"/>
<path d="M89.2991 1.17542C89.4186 0.80636 89.9407 0.80636 90.0602 1.17542L91.8271 6.63304C91.8805 6.79805 92.0342 6.90983 92.2077 6.90983H97.9287C98.3158 6.90983 98.4772 7.40495 98.1644 7.63304L93.5335 11.0096C93.3938 11.1115 93.3354 11.2915 93.3886 11.456L95.1569 16.9177C95.2763 17.2864 94.8538 17.5924 94.5406 17.3641L89.9153 13.9915C89.7749 13.8891 89.5844 13.8891 89.444 13.9915L84.8186 17.3641C84.5054 17.5924 84.083 17.2864 84.2024 16.9177L85.9706 11.456C86.0239 11.2915 85.9654 11.1115 85.8257 11.0096L81.1949 7.63304C80.8821 7.40495 81.0434 6.90983 81.4305 6.90983H87.1516C87.325 6.90983 87.4787 6.79805 87.5321 6.63304L89.2991 1.17542Z" fill="#FFB31F"/>
</svg>
