<svg xmlns="http://www.w3.org/2000/svg" xmlns:xlink="http://www.w3.org/1999/xlink" width="50" zoomAndPan="magnify" viewBox="0 0 37.5 37.499999" height="50" preserveAspectRatio="xMidYMid meet" version="1.0"><defs><clipPath id="42b56dc6a9"><path d="M 0 19 L 11 19 L 11 36.242188 L 0 36.242188 Z M 0 19 " clip-rule="nonzero"/></clipPath><clipPath id="1d1dae3a7e"><path d="M 14 0.71875 L 37.007812 0.71875 L 37.007812 23 L 14 23 Z M 14 0.71875 " clip-rule="nonzero"/></clipPath></defs><g clip-path="url(#42b56dc6a9)"><path fill="#004aad" d="M 1.65625 36.289062 C 0.746094 36.289062 0.00390625 35.546875 0.00390625 34.632812 L 0.00390625 21.566406 C 0.00390625 20.65625 0.742188 19.914062 1.65625 19.914062 L 4.800781 19.914062 L 4.800781 28.101562 C 4.800781 28.574219 5.519531 28.574219 5.519531 28.101562 L 5.519531 19.914062 L 8.582031 19.914062 C 9.496094 19.914062 10.234375 20.652344 10.234375 21.566406 L 10.234375 34.632812 C 10.234375 35.546875 9.492188 36.289062 8.578125 36.289062 Z M 6.875 34.480469 C 5.035156 34.480469 5.039062 31.6875 6.875 31.6875 C 8.710938 31.6875 8.714844 34.480469 6.875 34.480469 Z M 6.875 34.480469 " fill-opacity="1" fill-rule="evenodd"/></g><path fill="#004aad" d="M 22.976562 35.253906 L 11.394531 35.253906 C 11.222656 35.253906 9.96875 34.601562 9.722656 34.480469 C 9.601562 34.421875 9.519531 34.296875 9.519531 34.160156 L 9.519531 22.011719 C 9.519531 20.960938 14.214844 21.863281 14.050781 13.59375 C 14.039062 12.832031 14.066406 11.980469 14.640625 11.582031 C 14.996094 11.332031 15.484375 11.328125 16.089844 11.5625 C 17.394531 12.074219 18.371094 14.054688 18.410156 16.269531 C 18.441406 18.015625 18.363281 19.859375 17.175781 21.652344 L 26.054688 21.652344 C 26.140625 21.652344 26.214844 21.675781 26.269531 21.714844 C 27.101562 21.933594 27.71875 22.695312 27.71875 23.601562 C 27.71875 24.375 27.269531 25.042969 26.613281 25.355469 C 27.71875 26.390625 27.269531 28.234375 25.824219 28.652344 C 26.882812 29.820312 26.175781 31.710938 24.605469 31.894531 C 25.734375 33.246094 24.566406 35.261719 23.0625 35.261719 C 23.03125 35.261719 23.003906 35.257812 22.976562 35.253906 Z M 22.976562 35.253906 " fill-opacity="1" fill-rule="evenodd"/><path fill="#004aad" d="M 26.445312 17.839844 C 26.445312 18.390625 26.582031 19.40625 25.65625 19.40625 C 24.742188 19.40625 24.867188 18.417969 24.867188 17.914062 C 23.265625 17.726562 22.097656 16.738281 21.855469 15.007812 C 21.710938 13.976562 23.269531 13.761719 23.414062 14.789062 C 23.714844 16.917969 26.324219 16.460938 26.90625 15.949219 C 27.910156 15.066406 27.78125 13.085938 25.566406 12.835938 C 21.71875 12.402344 21.421875 8.308594 23.554688 6.816406 C 23.929688 6.554688 24.382812 6.367188 24.867188 6.257812 L 24.867188 5.507812 C 24.867188 4.46875 26.445312 4.46875 26.445312 5.507812 L 26.445312 6.171875 C 27.605469 6.3125 28.417969 6.804688 28.996094 7.773438 C 30.183594 9.761719 28.769531 10.296875 28.199219 9.847656 C 27.539062 9.320312 28.238281 7.6875 25.632812 7.730469 C 24.628906 7.746094 23.824219 8.367188 23.824219 9.5 C 23.824219 10.613281 24.738281 11.152344 25.742188 11.265625 C 30.070312 11.75 30.078125 17.042969 26.445312 17.839844 Z M 26.445312 17.839844 " fill-opacity="1" fill-rule="evenodd"/><g clip-path="url(#1d1dae3a7e)"><path fill="#004aad" d="M 29.152344 22.820312 C 28.273438 22.820312 28.058594 21.582031 28.890625 21.289062 C 32.804688 19.921875 35.425781 16.207031 35.425781 12.066406 C 35.425781 6.675781 31.042969 2.292969 25.652344 2.292969 C 21.132812 2.292969 17.230469 5.351562 16.15625 9.738281 C 15.910156 10.75 14.378906 10.371094 14.625 9.367188 C 15.871094 4.269531 20.40625 0.71875 25.652344 0.71875 C 31.914062 0.71875 37.003906 5.808594 37.003906 12.070312 C 37.003906 16.808594 34.097656 21.5 29.390625 22.789062 C 29.3125 22.808594 29.234375 22.820312 29.152344 22.820312 Z M 29.152344 22.820312 " fill-opacity="1" fill-rule="evenodd"/></g></svg>