<svg xmlns="http://www.w3.org/2000/svg" xmlns:xlink="http://www.w3.org/1999/xlink" width="50" zoomAndPan="magnify" viewBox="0 0 37.5 37.499999" height="50" preserveAspectRatio="xMidYMid meet" version="1.0"><defs><clipPath id="1837dca63a"><path d="M 0 32 L 5 32 L 5 37.007812 L 0 37.007812 Z M 0 32 " clip-rule="nonzero"/></clipPath></defs><path fill="#004aad" d="M 23.992188 19.738281 L 30.160156 19.738281 L 30.160156 20.96875 L 23.992188 20.96875 Z M 23.992188 19.738281 " fill-opacity="1" fill-rule="nonzero"/><path fill="#004aad" d="M 29.488281 22.367188 L 29.542969 22.203125 L 24.609375 22.203125 L 24.664062 22.367188 C 25 23.375 25.941406 24.054688 27.003906 24.054688 L 27.148438 24.054688 C 28.210938 24.054688 29.152344 23.375 29.488281 22.367188 Z M 29.488281 22.367188 " fill-opacity="1" fill-rule="nonzero"/><path fill="#004aad" d="M 17.207031 8.636719 L 19.058594 8.636719 L 19.058594 9.867188 L 17.207031 9.867188 Z M 17.207031 8.636719 " fill-opacity="1" fill-rule="nonzero"/><path fill="#004aad" d="M 35.09375 8.636719 L 36.945312 8.636719 L 36.945312 9.867188 L 35.09375 9.867188 Z M 35.09375 8.636719 " fill-opacity="1" fill-rule="nonzero"/><path fill="#004aad" d="M 19.660156 2.710938 L 20.535156 1.835938 L 21.84375 3.144531 L 20.96875 4.019531 Z M 19.660156 2.710938 " fill-opacity="1" fill-rule="nonzero"/><path fill="#004aad" d="M 32.308594 3.144531 L 33.617188 1.835938 L 34.488281 2.710938 L 33.183594 4.019531 Z M 32.308594 3.144531 " fill-opacity="1" fill-rule="nonzero"/><path fill="#004aad" d="M 26.460938 0 L 27.691406 0 L 27.691406 1.851562 L 26.460938 1.851562 Z M 26.460938 0 " fill-opacity="1" fill-rule="nonzero"/><path fill="#004aad" d="M 27.691406 29.605469 L 27.691406 27.753906 L 26.460938 27.753906 L 26.460938 29.605469 C 26.460938 31.984375 24.523438 33.921875 22.140625 33.921875 L 21.527344 33.921875 C 19.144531 33.921875 17.207031 31.984375 17.207031 29.605469 L 17.207031 18.503906 C 17.207031 15.441406 14.71875 12.953125 11.65625 12.953125 L 10.421875 12.953125 L 10.421875 14.1875 L 11.65625 14.1875 C 14.039062 14.1875 15.972656 16.121094 15.972656 18.503906 L 15.972656 29.605469 C 15.972656 32.664062 18.464844 35.15625 21.527344 35.15625 L 22.140625 35.15625 C 25.203125 35.15625 27.691406 32.664062 27.691406 29.605469 Z M 27.691406 29.605469 " fill-opacity="1" fill-rule="nonzero"/><path fill="#004aad" d="M 26.460938 25.289062 L 27.691406 25.289062 L 27.691406 26.519531 L 26.460938 26.519531 Z M 26.460938 25.289062 " fill-opacity="1" fill-rule="nonzero"/><path fill="#004aad" d="M 30.160156 17.308594 C 30.160156 16.300781 30.53125 15.308594 31.257812 14.625 C 32.476562 13.476562 33.246094 11.828125 33.246094 10 C 33.246094 6.285156 30.09375 3.320312 26.371094 3.742188 C 23.523438 4.0625 21.21875 6.453125 20.9375 9.367188 C 20.742188 11.429688 21.523438 13.3125 22.863281 14.59375 C 23.59375 15.292969 23.992188 16.28125 23.992188 17.308594 L 23.992188 18.503906 L 30.160156 18.503906 Z M 27.078125 11.898438 L 25.171875 12.953125 L 25.535156 10.722656 L 23.992188 9.140625 L 26.125 8.816406 L 27.078125 6.785156 L 28.03125 8.816406 L 30.160156 9.140625 L 28.617188 10.722656 L 28.980469 12.953125 Z M 27.078125 11.898438 " fill-opacity="1" fill-rule="nonzero"/><path fill="#004aad" d="M 7.957031 12.953125 L 9.191406 12.953125 L 9.191406 14.1875 L 7.957031 14.1875 Z M 7.957031 12.953125 " fill-opacity="1" fill-rule="nonzero"/><path fill="#004aad" d="M 3.769531 17.304688 L 3.519531 18.242188 L 8.273438 19.5625 L 8.535156 18.582031 C 8.886719 17.265625 8.105469 15.914062 6.792969 15.558594 C 5.476562 15.207031 4.121094 15.988281 3.769531 17.304688 Z M 3.769531 17.304688 " fill-opacity="1" fill-rule="nonzero"/><path fill="#004aad" d="M 7.953125 20.753906 L 3.199219 19.433594 L 0.105469 30.972656 L 4.84375 32.363281 Z M 7.953125 20.753906 " fill-opacity="1" fill-rule="nonzero"/><g clip-path="url(#1837dca63a)"><path fill="#004aad" d="M 4.191406 33.457031 L 0.0703125 32.246094 L 0.554688 37.007812 Z M 4.191406 33.457031 " fill-opacity="1" fill-rule="nonzero"/></g></svg>