<svg xmlns="http://www.w3.org/2000/svg" xmlns:xlink="http://www.w3.org/1999/xlink" width="250" zoomAndPan="magnify" viewBox="0 0 187.5 37.5" height="50" preserveAspectRatio="xMidYMid meet" version="1.0"><defs><g/><clipPath id="2ae0987566"><path d="M 80.347656 2.28125 L 106.992188 2.28125 L 106.992188 34.847656 L 80.347656 34.847656 Z M 80.347656 2.28125 " clip-rule="nonzero"/></clipPath><clipPath id="e82ec16a94"><path d="M 80.347656 2.28125 L 106.992188 2.28125 L 106.992188 20.042969 L 80.347656 20.042969 Z M 80.347656 2.28125 " clip-rule="nonzero"/></clipPath></defs><g fill="#ffffff" fill-opacity="1"><g transform="translate(9.46545, 24.038539)"><g><path d="M 7.9375 -18.328125 C 8.914062 -18.328125 9.867188 -18.179688 10.796875 -17.890625 C 11.722656 -17.609375 12.414062 -17.332031 12.875 -17.0625 L 13.53125 -16.625 L 11.859375 -13.34375 C 11.734375 -13.4375 11.550781 -13.550781 11.3125 -13.6875 C 11.082031 -13.820312 10.644531 -14.003906 10 -14.234375 C 9.363281 -14.472656 8.769531 -14.59375 8.21875 -14.59375 C 7.539062 -14.59375 7.015625 -14.445312 6.640625 -14.15625 C 6.265625 -13.863281 6.078125 -13.472656 6.078125 -12.984375 C 6.078125 -12.734375 6.164062 -12.5 6.34375 -12.28125 C 6.519531 -12.070312 6.816406 -11.847656 7.234375 -11.609375 C 7.660156 -11.367188 8.03125 -11.175781 8.34375 -11.03125 C 8.664062 -10.882812 9.164062 -10.664062 9.84375 -10.375 C 11 -9.882812 11.988281 -9.210938 12.8125 -8.359375 C 13.632812 -7.515625 14.046875 -6.550781 14.046875 -5.46875 C 14.046875 -4.4375 13.859375 -3.535156 13.484375 -2.765625 C 13.117188 -1.992188 12.613281 -1.390625 11.96875 -0.953125 C 11.320312 -0.523438 10.601562 -0.207031 9.8125 0 C 9.03125 0.21875 8.179688 0.328125 7.265625 0.328125 C 6.472656 0.328125 5.695312 0.242188 4.9375 0.078125 C 4.1875 -0.078125 3.554688 -0.273438 3.046875 -0.515625 C 2.546875 -0.753906 2.085938 -0.988281 1.671875 -1.21875 C 1.265625 -1.457031 0.96875 -1.65625 0.78125 -1.8125 L 0.5 -2.046875 L 2.546875 -5.5 C 2.722656 -5.351562 2.960938 -5.164062 3.265625 -4.9375 C 3.578125 -4.71875 4.117188 -4.414062 4.890625 -4.03125 C 5.671875 -3.65625 6.359375 -3.46875 6.953125 -3.46875 C 8.679688 -3.46875 9.546875 -4.054688 9.546875 -5.234375 C 9.546875 -5.484375 9.484375 -5.710938 9.359375 -5.921875 C 9.242188 -6.128906 9.03125 -6.335938 8.71875 -6.546875 C 8.40625 -6.765625 8.128906 -6.929688 7.890625 -7.046875 C 7.648438 -7.171875 7.253906 -7.359375 6.703125 -7.609375 C 6.160156 -7.867188 5.757812 -8.066406 5.5 -8.203125 C 4.40625 -8.742188 3.5625 -9.414062 2.96875 -10.21875 C 2.375 -11.03125 2.078125 -11.898438 2.078125 -12.828125 C 2.078125 -14.441406 2.671875 -15.757812 3.859375 -16.78125 C 5.054688 -17.8125 6.414062 -18.328125 7.9375 -18.328125 Z M 7.9375 -18.328125 "/></g></g></g><g fill="#ffffff" fill-opacity="1"><g transform="translate(25.126039, 24.038539)"><g><path d="M 0.171875 -14.390625 L 0.171875 -18 L 12.828125 -18 L 12.828125 -14.390625 L 8.546875 -14.390625 L 8.546875 0 L 4.453125 0 L 4.453125 -14.390625 Z M 0.171875 -14.390625 "/></g></g></g><g fill="#004aac" fill-opacity="1"><g transform="translate(39.140099, 24.038539)"><g><path d="M 0.5 -9.015625 C 0.5 -11.609375 1.382812 -13.804688 3.15625 -15.609375 C 4.9375 -17.421875 7.078125 -18.328125 9.578125 -18.328125 C 12.085938 -18.328125 14.222656 -17.425781 15.984375 -15.625 C 17.742188 -13.832031 18.625 -11.628906 18.625 -9.015625 C 18.625 -6.378906 17.757812 -4.160156 16.03125 -2.359375 C 14.300781 -0.566406 12.148438 0.328125 9.578125 0.328125 C 6.941406 0.328125 4.769531 -0.5625 3.0625 -2.34375 C 1.351562 -4.125 0.5 -6.347656 0.5 -9.015625 Z M 4.921875 -9.015625 C 4.921875 -8.066406 5.066406 -7.203125 5.359375 -6.421875 C 5.648438 -5.640625 6.160156 -4.976562 6.890625 -4.4375 C 7.617188 -3.90625 8.515625 -3.640625 9.578125 -3.640625 C 11.097656 -3.640625 12.25 -4.160156 13.03125 -5.203125 C 13.8125 -6.253906 14.203125 -7.523438 14.203125 -9.015625 C 14.203125 -10.484375 13.804688 -11.742188 13.015625 -12.796875 C 12.222656 -13.847656 11.078125 -14.375 9.578125 -14.375 C 8.085938 -14.375 6.9375 -13.847656 6.125 -12.796875 C 5.320312 -11.742188 4.921875 -10.484375 4.921875 -9.015625 Z M 4.921875 -9.015625 "/></g></g></g><g fill="#ffffff" fill-opacity="1"><g transform="translate(59.27399, 24.038539)"><g><path d="M 1.3125 -18 L 7.75 -18 C 9.476562 -18 10.882812 -17.535156 11.96875 -16.609375 C 13.0625 -15.679688 13.609375 -14.363281 13.609375 -12.65625 C 13.609375 -11.332031 13.273438 -10.222656 12.609375 -9.328125 C 11.953125 -8.429688 11.054688 -7.800781 9.921875 -7.4375 L 16.125 0 L 10.90625 0 L 5.40625 -7.109375 L 5.40625 0 L 1.3125 0 Z M 5.40625 -10.015625 L 5.890625 -10.015625 C 6.265625 -10.015625 6.582031 -10.019531 6.84375 -10.03125 C 7.101562 -10.050781 7.398438 -10.101562 7.734375 -10.1875 C 8.078125 -10.269531 8.347656 -10.390625 8.546875 -10.546875 C 8.753906 -10.710938 8.929688 -10.945312 9.078125 -11.25 C 9.222656 -11.5625 9.296875 -11.929688 9.296875 -12.359375 C 9.296875 -12.796875 9.222656 -13.164062 9.078125 -13.46875 C 8.929688 -13.78125 8.753906 -14.015625 8.546875 -14.171875 C 8.347656 -14.335938 8.078125 -14.460938 7.734375 -14.546875 C 7.398438 -14.640625 7.101562 -14.691406 6.84375 -14.703125 C 6.582031 -14.710938 6.265625 -14.71875 5.890625 -14.71875 L 5.40625 -14.71875 Z M 5.40625 -10.015625 "/></g></g></g><g fill="#ffffff" fill-opacity="1"><g transform="translate(75.903821, 24.038539)"><g/></g></g><g fill="#ffffff" fill-opacity="1"><g transform="translate(82.861912, 24.038539)"><g/></g></g><g fill="#ffffff" fill-opacity="1"><g transform="translate(89.820003, 24.038539)"><g/></g></g><g fill="#ffffff" fill-opacity="1"><g transform="translate(96.778095, 24.038539)"><g/></g></g><g fill="#ffffff" fill-opacity="1"><g transform="translate(103.736185, 24.038539)"><g/></g></g><g fill="#ffffff" fill-opacity="1"><g transform="translate(110.701568, 24.038539)"><g><path d="M 10.890625 -3.703125 C 11.515625 -3.703125 12.117188 -3.796875 12.703125 -3.984375 C 13.296875 -4.179688 13.726562 -4.363281 14 -4.53125 L 14.421875 -4.828125 L 16.15625 -1.328125 C 16.101562 -1.285156 16.023438 -1.226562 15.921875 -1.15625 C 15.816406 -1.082031 15.578125 -0.945312 15.203125 -0.75 C 14.835938 -0.550781 14.441406 -0.378906 14.015625 -0.234375 C 13.597656 -0.0859375 13.046875 0.0390625 12.359375 0.15625 C 11.679688 0.269531 10.976562 0.328125 10.25 0.328125 C 8.582031 0.328125 7 -0.0820312 5.5 -0.90625 C 4 -1.726562 2.789062 -2.859375 1.875 -4.296875 C 0.957031 -5.734375 0.5 -7.289062 0.5 -8.96875 C 0.5 -10.226562 0.765625 -11.441406 1.296875 -12.609375 C 1.835938 -13.773438 2.554688 -14.769531 3.453125 -15.59375 C 4.347656 -16.425781 5.390625 -17.085938 6.578125 -17.578125 C 7.773438 -18.078125 9 -18.328125 10.25 -18.328125 C 11.414062 -18.328125 12.488281 -18.1875 13.46875 -17.90625 C 14.445312 -17.632812 15.140625 -17.359375 15.546875 -17.078125 L 16.15625 -16.671875 L 14.421875 -13.171875 C 14.316406 -13.265625 14.160156 -13.367188 13.953125 -13.484375 C 13.753906 -13.609375 13.347656 -13.769531 12.734375 -13.96875 C 12.128906 -14.175781 11.515625 -14.28125 10.890625 -14.28125 C 9.898438 -14.28125 9.007812 -14.117188 8.21875 -13.796875 C 7.4375 -13.484375 6.816406 -13.0625 6.359375 -12.53125 C 5.898438 -12.007812 5.550781 -11.445312 5.3125 -10.84375 C 5.070312 -10.25 4.953125 -9.640625 4.953125 -9.015625 C 4.953125 -7.640625 5.460938 -6.410156 6.484375 -5.328125 C 7.515625 -4.242188 8.984375 -3.703125 10.890625 -3.703125 Z M 10.890625 -3.703125 "/></g></g></g><g fill="#004aac" fill-opacity="1"><g transform="translate(128.129353, 24.038539)"><g><path d="M 0.5 -9.015625 C 0.5 -11.609375 1.382812 -13.804688 3.15625 -15.609375 C 4.9375 -17.421875 7.078125 -18.328125 9.578125 -18.328125 C 12.085938 -18.328125 14.222656 -17.425781 15.984375 -15.625 C 17.742188 -13.832031 18.625 -11.628906 18.625 -9.015625 C 18.625 -6.378906 17.757812 -4.160156 16.03125 -2.359375 C 14.300781 -0.566406 12.148438 0.328125 9.578125 0.328125 C 6.941406 0.328125 4.769531 -0.5625 3.0625 -2.34375 C 1.351562 -4.125 0.5 -6.347656 0.5 -9.015625 Z M 4.921875 -9.015625 C 4.921875 -8.066406 5.066406 -7.203125 5.359375 -6.421875 C 5.648438 -5.640625 6.160156 -4.976562 6.890625 -4.4375 C 7.617188 -3.90625 8.515625 -3.640625 9.578125 -3.640625 C 11.097656 -3.640625 12.25 -4.160156 13.03125 -5.203125 C 13.8125 -6.253906 14.203125 -7.523438 14.203125 -9.015625 C 14.203125 -10.484375 13.804688 -11.742188 13.015625 -12.796875 C 12.222656 -13.847656 11.078125 -14.375 9.578125 -14.375 C 8.085938 -14.375 6.9375 -13.847656 6.125 -12.796875 C 5.320312 -11.742188 4.921875 -10.484375 4.921875 -9.015625 Z M 4.921875 -9.015625 "/></g></g></g><g fill="#ffffff" fill-opacity="1"><g transform="translate(148.263248, 24.038539)"><g><path d="M 1.3125 -18 L 7.75 -18 C 9.476562 -18 10.882812 -17.535156 11.96875 -16.609375 C 13.0625 -15.679688 13.609375 -14.363281 13.609375 -12.65625 C 13.609375 -11.332031 13.273438 -10.222656 12.609375 -9.328125 C 11.953125 -8.429688 11.054688 -7.800781 9.921875 -7.4375 L 16.125 0 L 10.90625 0 L 5.40625 -7.109375 L 5.40625 0 L 1.3125 0 Z M 5.40625 -10.015625 L 5.890625 -10.015625 C 6.265625 -10.015625 6.582031 -10.019531 6.84375 -10.03125 C 7.101562 -10.050781 7.398438 -10.101562 7.734375 -10.1875 C 8.078125 -10.269531 8.347656 -10.390625 8.546875 -10.546875 C 8.753906 -10.710938 8.929688 -10.945312 9.078125 -11.25 C 9.222656 -11.5625 9.296875 -11.929688 9.296875 -12.359375 C 9.296875 -12.796875 9.222656 -13.164062 9.078125 -13.46875 C 8.929688 -13.78125 8.753906 -14.015625 8.546875 -14.171875 C 8.347656 -14.335938 8.078125 -14.460938 7.734375 -14.546875 C 7.398438 -14.640625 7.101562 -14.691406 6.84375 -14.703125 C 6.582031 -14.710938 6.265625 -14.71875 5.890625 -14.71875 L 5.40625 -14.71875 Z M 5.40625 -10.015625 "/></g></g></g><g fill="#ffffff" fill-opacity="1"><g transform="translate(164.883503, 24.038539)"><g><path d="M 11.609375 -18 L 11.609375 -14.390625 L 5.40625 -14.390625 L 5.40625 -10.8125 L 11.34375 -10.8125 L 11.34375 -7.21875 L 5.40625 -7.21875 L 5.40625 -3.59375 L 11.609375 -3.59375 L 11.609375 0 L 1.3125 0 L 1.3125 -18 Z M 11.609375 -18 "/></g></g></g><g clip-path="url(#2ae0987566)"><path fill="#004aac" d="M 93.5 22.863281 L 97.09375 26.867188 L 99.75 29.828125 L 101.011719 28.421875 L 101.011719 22.503906 L 99.75 23.910156 L 96.15625 19.90625 L 102.890625 12.40625 L 102.890625 26.328125 L 106.648438 22.144531 L 106.648438 2.304688 L 93.5 16.949219 L 80.347656 2.304688 L 80.347656 22.144531 L 84.105469 26.328125 L 84.105469 12.40625 L 90.84375 19.90625 L 87.246094 23.910156 L 85.984375 22.503906 L 85.984375 28.421875 L 87.246094 29.828125 L 89.902344 26.867188 Z M 85.984375 17.464844 L 85.984375 19.996094 L 87.152344 21.070312 L 88.371094 19.851562 C 88.371094 19.851562 85.984375 17.511719 85.984375 17.464844 Z M 93.5 34.695312 L 91.621094 34.695312 L 88.574219 31.304688 L 93.5 25.988281 L 98.421875 31.304688 L 95.375 34.695312 Z M 101.011719 17.464844 L 101.011719 19.996094 L 99.847656 21.070312 L 98.625 19.851562 C 98.625 19.851562 101.011719 17.511719 101.011719 17.464844 Z M 101.011719 17.464844 " fill-opacity="1" fill-rule="evenodd"/></g><g clip-path="url(#e82ec16a94)"><path fill="#ffffff" d="M 93.5 22.863281 L 97.09375 26.867188 L 99.75 29.828125 L 101.011719 28.421875 L 101.011719 22.503906 L 99.75 23.910156 L 96.15625 19.90625 L 102.890625 12.40625 L 102.890625 26.328125 L 106.648438 22.144531 L 106.648438 2.304688 L 93.5 16.949219 L 80.347656 2.304688 L 80.347656 22.144531 L 84.105469 26.328125 L 84.105469 12.40625 L 90.84375 19.90625 L 87.246094 23.910156 L 85.984375 22.503906 L 85.984375 28.421875 L 87.246094 29.828125 L 89.902344 26.867188 Z M 85.984375 17.464844 L 85.984375 19.996094 L 87.152344 21.070312 L 88.371094 19.851562 C 88.371094 19.851562 85.984375 17.511719 85.984375 17.464844 Z M 93.5 34.695312 L 91.621094 34.695312 L 88.574219 31.304688 L 93.5 25.988281 L 98.421875 31.304688 L 95.375 34.695312 Z M 101.011719 17.464844 L 101.011719 19.996094 L 99.847656 21.070312 L 98.625 19.851562 C 98.625 19.851562 101.011719 17.511719 101.011719 17.464844 Z M 101.011719 17.464844 " fill-opacity="1" fill-rule="evenodd"/></g></svg>