<svg xmlns="http://www.w3.org/2000/svg" xmlns:xlink="http://www.w3.org/1999/xlink" width="300" zoomAndPan="magnify" viewBox="0 0 224.87999 225" height="300" preserveAspectRatio="xMidYMid meet" version="1.0"><defs><clipPath id="6d81f00f47"><path d="M 0 0.0585938 L 224.761719 0.0585938 L 224.761719 224.9375 L 0 224.9375 Z M 0 0.0585938 " clip-rule="nonzero"/></clipPath></defs><g clip-path="url(#6d81f00f47)"><path fill="#004aad" d="M 199.691406 0.0585938 C 162.3125 0.0585938 112.160156 25.703125 78.480469 69.789062 L 50.558594 69.789062 C 30.386719 69.789062 18.820312 84.847656 10.859375 100.773438 L 0.203125 122.089844 L 50.558594 122.089844 L 102.855469 174.386719 L 102.855469 224.742188 L 124.171875 214.085938 C 140.097656 206.125 155.15625 194.558594 155.15625 174.386719 L 155.15625 146.464844 C 199.242188 112.785156 224.886719 62.632812 224.886719 25.253906 L 224.886719 0.0585938 Z M 155.15625 52.359375 C 164.78125 52.359375 172.585938 60.164062 172.585938 69.789062 C 172.585938 79.417969 164.78125 87.222656 155.15625 87.222656 C 145.527344 87.222656 137.722656 79.417969 137.722656 69.789062 C 137.722656 60.164062 145.527344 52.359375 155.15625 52.359375 Z M 41.84375 156.953125 L 33.128906 165.667969 C 20.539062 178.257812 15.695312 209.25 15.695312 209.25 C 15.695312 209.25 45.296875 205.800781 59.277344 191.816406 L 67.992188 183.101562 Z M 41.84375 156.953125 " fill-opacity="1" fill-rule="nonzero"/></g></svg>