<svg width="24" height="28" viewBox="0 0 24 28" fill="none" xmlns="http://www.w3.org/2000/svg">
<g clip-path="url(#clip0_185_2391)">
<path d="M22.4336 12.5146C22.4336 20.3896 12.3086 27.1396 12.3086 27.1396C12.3086 27.1396 2.18359 20.3896 2.18359 12.5146C2.18359 9.82933 3.25033 7.254 5.14914 5.35519C7.04794 3.45639 9.62328 2.38965 12.3086 2.38965C14.9939 2.38965 17.5692 3.45639 19.468 5.35519C21.3669 7.254 22.4336 9.82933 22.4336 12.5146Z" stroke="#060606" stroke-width="2" stroke-linecap="round" stroke-linejoin="round"/>
<path d="M12.3086 15.8896C14.1726 15.8896 15.6836 14.3786 15.6836 12.5146C15.6836 10.6507 14.1726 9.13965 12.3086 9.13965C10.4446 9.13965 8.93359 10.6507 8.93359 12.5146C8.93359 14.3786 10.4446 15.8896 12.3086 15.8896Z" stroke="#384BF8" stroke-width="2" stroke-linecap="round" stroke-linejoin="round"/>
</g>
<defs>
<clipPath id="clip0_185_2391">
<rect width="23" height="27" fill="white" transform="translate(0.810547 0.820312)"/>
</clipPath>
</defs>
</svg>
