<svg width="28" height="29" viewBox="0 0 28 29" fill="none" xmlns="http://www.w3.org/2000/svg">
<g clip-path="url(#clip0_185_2381)">
<path d="M26.6426 8.93164V1.93164H19.6426" stroke="#384BF8" stroke-width="2" stroke-linecap="round" stroke-linejoin="round"/>
<path d="M18.4746 10.0983L26.6413 1.93164" stroke="#384BF8" stroke-width="2" stroke-linecap="round" stroke-linejoin="round"/>
<path d="M25.4743 20.5044V24.0044C25.4756 24.3294 25.409 24.651 25.2789 24.9487C25.1487 25.2464 24.9578 25.5136 24.7184 25.7333C24.479 25.9529 24.1963 26.1202 23.8885 26.2243C23.5807 26.3284 23.2546 26.367 22.931 26.3378C19.3409 25.9477 15.8925 24.7209 12.8626 22.7561C10.0438 20.9649 7.65385 18.575 5.86262 15.7561C3.89093 12.7125 2.6639 9.24726 2.28095 5.6411C2.2518 5.31848 2.29014 4.99332 2.39354 4.68633C2.49693 4.37934 2.66312 4.09724 2.88151 3.85799C3.09991 3.61875 3.36573 3.4276 3.66204 3.29671C3.95836 3.16583 4.27868 3.09807 4.60262 3.09777H8.10262C8.66881 3.0922 9.21771 3.29269 9.64701 3.66189C10.0763 4.03109 10.3567 4.54379 10.436 5.10444C10.5837 6.22451 10.8576 7.32428 11.2526 8.38277C11.4096 8.80035 11.4436 9.25417 11.3505 9.69046C11.2575 10.1268 11.0413 10.5272 10.7276 10.8444L9.24595 12.3261C10.9068 15.2469 13.3252 17.6653 16.246 19.3261L17.7276 17.8444C18.0448 17.5308 18.4453 17.3146 18.8816 17.2215C19.3179 17.1285 19.7717 17.1625 20.1893 17.3194C21.2478 17.7144 22.3475 17.9884 23.4676 18.1361C24.0343 18.2161 24.5519 18.5015 24.9219 18.9382C25.2919 19.3748 25.4885 19.9323 25.4743 20.5044Z" stroke="#060606" stroke-width="2" stroke-linecap="round" stroke-linejoin="round"/>
</g>
<defs>
<clipPath id="clip0_185_2381">
<rect width="27" height="28" fill="white" transform="translate(0.810547 0.320312)"/>
</clipPath>
</defs>
</svg>
